<?xml version="1.0" encoding="utf-8"?>
<!-- Generator: Adobe Illustrator 15.0.2, SVG Export Plug-In . SVG Version: 6.00 Build 0)  -->
<!DOCTYPE svg PUBLIC "-//W3C//DTD SVG 1.1//EN" "http://www.w3.org/Graphics/SVG/1.1/DTD/svg11.dtd">
<svg version="1.1" id="Layer_1" xmlns="http://www.w3.org/2000/svg" xmlns:xlink="http://www.w3.org/1999/xlink" x="0px" y="0px"
	 width="19px" height="19px" viewBox="246.5 246.5 19 19" enable-background="new 246.5 246.5 19 19" xml:space="preserve">
<path id="instagram-6-icon" fill="#FBFBEE" d="M262.154,254.769h-1.393c0.102,0.395,0.161,0.806,0.161,1.231
	c0,2.719-2.204,4.923-4.923,4.923s-4.923-2.204-4.923-4.923c0-0.426,0.061-0.837,0.162-1.231h-1.394v6.77
	c0,0.34,0.275,0.615,0.616,0.615h11.076c0.341,0,0.616-0.275,0.616-0.615V254.769L262.154,254.769z M262.154,250.461
	c0-0.34-0.275-0.615-0.616-0.615h-1.846c-0.34,0-0.615,0.275-0.615,0.615v1.847c0,0.34,0.275,0.615,0.615,0.615h1.846
	c0.341,0,0.616-0.275,0.616-0.615V250.461z M256,252.923c-1.699,0-3.077,1.377-3.077,3.077c0,1.699,1.378,3.077,3.077,3.077
	s3.077-1.378,3.077-3.077C259.077,254.3,257.699,252.923,256,252.923 M262.154,264h-12.309c-1.02,0-1.846-0.827-1.846-1.847v-12.308
	c0-1.02,0.826-1.846,1.846-1.846h12.309c1.02,0,1.846,0.826,1.846,1.846v12.308C264,263.173,263.174,264,262.154,264"/>
</svg>
