<?xml version="1.0" encoding="utf-8"?>
<!-- Generator: Adobe Illustrator 17.1.0, SVG Export Plug-In . SVG Version: 6.00 Build 0)  -->
<!DOCTYPE svg PUBLIC "-//W3C//DTD SVG 1.1//EN" "http://www.w3.org/Graphics/SVG/1.1/DTD/svg11.dtd">
<svg version="1.1" id="Layer_1" xmlns="http://www.w3.org/2000/svg" xmlns:xlink="http://www.w3.org/1999/xlink" x="0px" y="0px"
	 viewBox="0 0 75 67" enable-background="new 0 0 75 67" xml:space="preserve">
<g>
	<path fill="#FBFBEF" d="M10.6,58.4c-1,0-1.8-0.8-1.8-1.8V10.3c0-1,0.8-1.8,1.8-1.8h53.8c1,0,1.8,0.8,1.8,1.8v46.3
		c0,1-0.8,1.8-1.8,1.8H10.6z M19,46.9H56v-6.2H19V46.9z M19,36.6H56v-6.2H19V36.6z M19,26.3H56v-6.2H19V26.3z"/>
	<path fill="#FBFBEF" d="M64.4,9.1c0.7,0,1.3,0.6,1.3,1.3v46.3c0,0.7-0.6,1.3-1.3,1.3H10.6c-0.7,0-1.3-0.6-1.3-1.3V10.3
		c0-0.7,0.6-1.3,1.3-1.3H64.4 M18.5,26.8h1h36.1h1v-1v-5.2v-1h-1H19.5h-1v1v5.2V26.8 M18.5,37.1h1h36.1h1v-1v-5.2v-1h-1H19.5h-1v1
		v5.2V37.1 M18.5,47.4h1h36.1h1v-1v-5.2v-1h-1H19.5h-1v1v5.2V47.4 M64.4,8.1H10.6c-1.3,0-2.3,1-2.3,2.3v46.3c0,1.3,1,2.3,2.3,2.3
		h53.8c1.3,0,2.3-1,2.3-2.3V10.3C66.7,9.1,65.7,8.1,64.4,8.1L64.4,8.1z M19.5,25.8v-5.2h36.1v5.2H19.5L19.5,25.8z M19.5,36.1v-5.2
		h36.1v5.2H19.5L19.5,36.1z M19.5,46.4v-5.2h36.1v5.2H19.5L19.5,46.4z"/>
</g>
</svg>
