<?xml version="1.0" encoding="utf-8"?>
<!-- Generator: Adobe Illustrator 15.0.2, SVG Export Plug-In . SVG Version: 6.00 Build 0)  -->
<!DOCTYPE svg PUBLIC "-//W3C//DTD SVG 1.1//EN" "http://www.w3.org/Graphics/SVG/1.1/DTD/svg11.dtd">
<svg version="1.1" id="Layer_1" xmlns="http://www.w3.org/2000/svg" xmlns:xlink="http://www.w3.org/1999/xlink" x="0px" y="0px"
	 width="78.755px" height="58px" viewBox="385.578 350.857 78.755 58" enable-background="new 385.578 350.857 78.755 58"
	 xml:space="preserve">
<path id="shopping-cart-3-icon" fill="#333333" d="M441.525,359.374h-54.083l9.763,22.083h37.376L441.525,359.374z M462.469,352.357
	l-2.323,7.29h-5.464l-10.785,34.294h-41.385l-3.212-7.29h39.267l10.785-34.294H462.469z M436.039,402.456
	c0,2.707-2.193,4.901-4.9,4.901s-4.9-2.194-4.9-4.901c0-2.706,2.193-4.9,4.9-4.9S436.039,399.75,436.039,402.456z M419.84,402.456
	c0,2.707-2.193,4.901-4.9,4.901s-4.901-2.194-4.901-4.901c0-2.706,2.194-4.9,4.901-4.9S419.84,399.75,419.84,402.456z"/>
</svg>
