<?xml version="1.0" encoding="utf-8"?>
<!-- Generator: Adobe Illustrator 15.0.2, SVG Export Plug-In . SVG Version: 6.00 Build 0)  -->
<!DOCTYPE svg PUBLIC "-//W3C//DTD SVG 1.1//EN" "http://www.w3.org/Graphics/SVG/1.1/DTD/svg11.dtd">
<svg version="1.1" id="Layer_1" xmlns="http://www.w3.org/2000/svg" xmlns:xlink="http://www.w3.org/1999/xlink" x="0px" y="0px"
	 width="18px" height="18px" viewBox="247 247 18 18" enable-background="new 247 247 18 18" xml:space="preserve">
<path id="twitter-icon" fill="#FBFBEE" d="M264,251.038c-0.589,0.262-1.222,0.438-1.886,0.517c0.678-0.406,1.198-1.049,1.443-1.815
	c-0.634,0.376-1.337,0.649-2.084,0.796c-0.599-0.638-1.452-1.036-2.396-1.036c-2.118,0-3.676,1.978-3.197,4.03
	c-2.729-0.137-5.147-1.443-6.766-3.43c-0.86,1.476-0.446,3.406,1.016,4.383c-0.538-0.017-1.044-0.165-1.487-0.41
	c-0.035,1.521,1.055,2.942,2.633,3.26c-0.462,0.125-0.968,0.154-1.482,0.057c0.418,1.303,1.631,2.252,3.066,2.279
	c-1.38,1.08-3.118,1.564-4.859,1.359c1.453,0.93,3.178,1.475,5.032,1.475c6.094,0,9.537-5.148,9.33-9.765
	C263.004,252.274,263.56,251.696,264,251.038z"/>
</svg>
